<svg id="visual" viewBox="0 0 900 600" width="900" height="600" xmlns="http://www.w3.org/2000/svg" xmlns:xlink="http://www.w3.org/1999/xlink" version="1.1"><rect x="0" y="0" width="900" height="600" fill="#001122"></rect><defs><linearGradient id="grad1_0" x1="33.3%" y1="0%" x2="100%" y2="100%"><stop offset="20%" stop-color="#f7770f" stop-opacity="1"></stop><stop offset="80%" stop-color="#f7770f" stop-opacity="1"></stop></linearGradient></defs><defs><linearGradient id="grad1_1" x1="33.3%" y1="0%" x2="100%" y2="100%"><stop offset="20%" stop-color="#f7770f" stop-opacity="1"></stop><stop offset="80%" stop-color="#bf315d" stop-opacity="1"></stop></linearGradient></defs><defs><linearGradient id="grad1_2" x1="33.3%" y1="0%" x2="100%" y2="100%"><stop offset="20%" stop-color="#512b5e" stop-opacity="1"></stop><stop offset="80%" stop-color="#bf315d" stop-opacity="1"></stop></linearGradient></defs><defs><linearGradient id="grad1_3" x1="33.3%" y1="0%" x2="100%" y2="100%"><stop offset="20%" stop-color="#512b5e" stop-opacity="1"></stop><stop offset="80%" stop-color="#001122" stop-opacity="1"></stop></linearGradient></defs><defs><linearGradient id="grad2_0" x1="0%" y1="0%" x2="66.7%" y2="100%"><stop offset="20%" stop-color="#f7770f" stop-opacity="1"></stop><stop offset="80%" stop-color="#f7770f" stop-opacity="1"></stop></linearGradient></defs><defs><linearGradient id="grad2_1" x1="0%" y1="0%" x2="66.7%" y2="100%"><stop offset="20%" stop-color="#bf315d" stop-opacity="1"></stop><stop offset="80%" stop-color="#f7770f" stop-opacity="1"></stop></linearGradient></defs><defs><linearGradient id="grad2_2" x1="0%" y1="0%" x2="66.7%" y2="100%"><stop offset="20%" stop-color="#bf315d" stop-opacity="1"></stop><stop offset="80%" stop-color="#512b5e" stop-opacity="1"></stop></linearGradient></defs><defs><linearGradient id="grad2_3" x1="0%" y1="0%" x2="66.7%" y2="100%"><stop offset="20%" stop-color="#001122" stop-opacity="1"></stop><stop offset="80%" stop-color="#512b5e" stop-opacity="1"></stop></linearGradient></defs><g transform="translate(900, 0)"><path d="M0 378.6C-13.5 349.4 -27.1 320.2 -36.4 299.8C-45.7 279.4 -50.9 267.8 -71.6 290.3C-92.2 312.8 -128.5 369.3 -134.2 354C-140 338.7 -115.3 251.6 -122.2 232.9C-129.1 214.2 -167.7 263.9 -194.8 282.3C-222 300.7 -237.9 287.7 -228.8 258.2C-219.7 228.8 -185.7 183 -197.6 175.1C-209.5 167.2 -267.4 197.2 -280.6 193.7C-293.9 190.2 -262.6 153.1 -254.1 133.4C-245.6 113.7 -259.9 111.4 -284.2 107.8C-308.6 104.2 -342.9 99.3 -359.2 88.5C-375.6 77.8 -374 61.2 -374.3 45.4C-374.5 29.7 -376.5 14.9 -378.6 0L0 0Z" fill="#1f2245"></path><path d="M0 283.9C-10.2 262 -20.3 240.1 -27.3 224.8C-34.3 209.6 -38.2 200.9 -53.7 217.7C-69.2 234.6 -96.4 277 -100.7 265.5C-105 254 -86.5 188.7 -91.7 174.7C-96.9 160.6 -125.7 197.9 -146.1 211.7C-166.5 225.5 -178.4 215.7 -171.6 193.7C-164.8 171.6 -139.3 137.2 -148.2 131.3C-157.1 125.4 -200.5 147.9 -210.5 145.3C-220.4 142.6 -197 114.8 -190.6 100C-184.2 85.3 -194.9 83.5 -213.2 80.8C-231.4 78.2 -257.2 74.5 -269.4 66.4C-281.7 58.3 -280.5 45.9 -280.7 34.1C-280.9 22.3 -282.4 11.1 -283.9 0L0 0Z" fill="#8a2c67"></path><path d="M0 189.3C-6.8 174.7 -13.5 160.1 -18.2 149.9C-22.9 139.7 -25.4 133.9 -35.8 145.2C-46.1 156.4 -64.2 184.6 -67.1 177C-70 169.3 -57.7 125.8 -61.1 116.4C-64.6 107.1 -83.8 132 -97.4 141.1C-111 150.3 -118.9 143.8 -114.4 129.1C-109.8 114.4 -92.8 91.5 -98.8 87.5C-104.8 83.6 -133.7 98.6 -140.3 96.9C-147 95.1 -131.3 76.5 -127.1 66.7C-122.8 56.8 -130 55.7 -142.1 53.9C-154.3 52.1 -171.4 49.7 -179.6 44.3C-187.8 38.9 -187 30.6 -187.1 22.7C-187.2 14.9 -188.3 7.4 -189.3 0L0 0Z" fill="#e64b43"></path><path d="M0 94.6C-3.4 87.3 -6.8 80 -9.1 74.9C-11.4 69.9 -12.7 67 -17.9 72.6C-23.1 78.2 -32.1 92.3 -33.6 88.5C-35 84.7 -28.8 62.9 -30.6 58.2C-32.3 53.5 -41.9 66 -48.7 70.6C-55.5 75.2 -59.5 71.9 -57.2 64.6C-54.9 57.2 -46.4 45.7 -49.4 43.8C-52.4 41.8 -66.8 49.3 -70.2 48.4C-73.5 47.5 -65.7 38.3 -63.5 33.3C-61.4 28.4 -65 27.8 -71.1 26.9C-77.1 26.1 -85.7 24.8 -89.8 22.1C-93.9 19.4 -93.5 15.3 -93.6 11.4C-93.6 7.4 -94.1 3.7 -94.6 0L0 0Z" fill="#f7770f"></path></g><g transform="translate(0, 600)"><path d="M0 -378.6C14.9 -375.8 29.8 -373.1 45.3 -373.3C60.9 -373.5 77.1 -376.6 90.6 -367.6C104.1 -358.5 114.8 -337.3 118.4 -312.3C122.1 -287.3 118.6 -258.6 139 -264.8C159.3 -270.9 203.4 -311.9 204.5 -296.3C205.6 -280.6 163.7 -208.3 173.7 -196.1C183.8 -183.9 245.7 -231.8 271 -240.1C296.2 -248.3 284.7 -217 290.5 -200.5C296.3 -184.1 319.4 -182.5 324.1 -170.1C328.7 -157.7 314.8 -134.4 306.7 -116.3C298.5 -98.2 296.1 -85.3 298.1 -73.5C300.1 -61.7 306.5 -51 320.6 -38.9C334.8 -26.9 356.7 -13.4 378.6 0L0 0Z" fill="#1f2245"></path><path d="M0 -283.9C11.2 -281.9 22.3 -279.8 34 -279.9C45.7 -280.1 57.8 -282.5 68 -275.7C78.1 -268.9 86.1 -253 88.8 -234.2C91.6 -215.5 89 -193.9 104.2 -198.6C119.5 -203.2 152.5 -233.9 153.4 -222.2C154.2 -210.5 122.8 -156.2 130.3 -147.1C137.8 -137.9 184.3 -173.8 203.2 -180C222.1 -186.2 213.5 -162.7 217.9 -150.4C222.2 -138.1 239.6 -136.9 243.1 -127.6C246.5 -118.3 236.1 -100.8 230 -87.2C223.9 -73.7 222.1 -64 223.6 -55.1C225.1 -46.2 229.9 -38.2 240.5 -29.2C251.1 -20.2 267.5 -10.1 283.9 0L0 0Z" fill="#8a2c67"></path><path d="M0 -189.3C7.4 -187.9 14.9 -186.5 22.7 -186.6C30.4 -186.7 38.6 -188.3 45.3 -183.8C52 -179.3 57.4 -168.6 59.2 -156.1C61 -143.7 59.3 -129.3 69.5 -132.4C79.6 -135.5 101.7 -156 102.3 -148.1C102.8 -140.3 81.9 -104.2 86.9 -98.1C91.9 -91.9 122.9 -115.9 135.5 -120C148.1 -124.2 142.3 -108.5 145.3 -100.3C148.2 -92 159.7 -91.3 162 -85C164.4 -78.8 157.4 -67.2 153.3 -58.2C149.3 -49.1 148 -42.6 149 -36.7C150 -30.8 153.2 -25.5 160.3 -19.5C167.4 -13.4 178.3 -6.7 189.3 0L0 0Z" fill="#e64b43"></path><path d="M0 -94.6C3.7 -94 7.4 -93.3 11.3 -93.3C15.2 -93.4 19.3 -94.2 22.7 -91.9C26 -89.6 28.7 -84.3 29.6 -78.1C30.5 -71.8 29.7 -64.6 34.7 -66.2C39.8 -67.7 50.8 -78 51.1 -74.1C51.4 -70.2 40.9 -52.1 43.4 -49C45.9 -46 61.4 -57.9 67.7 -60C74 -62.1 71.2 -54.2 72.6 -50.1C74.1 -46 79.9 -45.6 81 -42.5C82.2 -39.4 78.7 -33.6 76.7 -29.1C74.6 -24.6 74 -21.3 74.5 -18.4C75 -15.4 76.6 -12.7 80.2 -9.7C83.7 -6.7 89.2 -3.4 94.6 0L0 0Z" fill="#f7770f"></path></g></svg>