<svg id="visual" viewBox="0 0 900 600" width="900" height="600" xmlns="http://www.w3.org/2000/svg" xmlns:xlink="http://www.w3.org/1999/xlink" version="1.1"><rect x="0" y="0" width="900" height="600" fill="#fa9645"></rect><path d="M0 377L129 440L257 350L386 435L514 447L643 381L771 409L900 422L900 601L771 601L643 601L514 601L386 601L257 601L129 601L0 601Z" fill="#f5730a"></path><path d="M0 425L129 397L257 428L386 450L514 422L643 472L771 426L900 401L900 601L771 601L643 601L514 601L386 601L257 601L129 601L0 601Z" fill="#da5b09"></path><path d="M0 477L129 489L257 439L386 464L514 492L643 505L771 463L900 497L900 601L771 601L643 601L514 601L386 601L257 601L129 601L0 601Z" fill="#be4407"></path><path d="M0 515L129 523L257 505L386 491L514 494L643 538L771 541L900 519L900 601L771 601L643 601L514 601L386 601L257 601L129 601L0 601Z" fill="#a32d04"></path><path d="M0 572L129 559L257 537L386 563L514 553L643 549L771 556L900 556L900 601L771 601L643 601L514 601L386 601L257 601L129 601L0 601Z" fill="#871400"></path></svg>