<svg id="visual" viewBox="0 0 900 100" width="900" height="100" xmlns="http://www.w3.org/2000/svg" xmlns:xlink="http://www.w3.org/1999/xlink" version="1.1"><path d="M0 7L10 6.5C20 6 40 5 60 8.5C80 12 100 20 120 24.3C140 28.7 160 29.3 180 26C200 22.7 220 15.3 240 11.5C260 7.7 280 7.3 300 6.7C320 6 340 5 360 6C380 7 400 10 420 13.8C440 17.7 460 22.3 480 21.2C500 20 520 13 540 9.7C560 6.3 580 6.7 600 9C620 11.3 640 15.7 660 16C680 16.3 700 12.7 720 13C740 13.3 760 17.7 780 17.7C800 17.7 820 13.3 840 14.5C860 15.7 880 22.3 890 25.7L900 29L900 0L890 0C880 0 860 0 840 0C820 0 800 0 780 0C760 0 740 0 720 0C700 0 680 0 660 0C640 0 620 0 600 0C580 0 560 0 540 0C520 0 500 0 480 0C460 0 440 0 420 0C400 0 380 0 360 0C340 0 320 0 300 0C280 0 260 0 240 0C220 0 200 0 180 0C160 0 140 0 120 0C100 0 80 0 60 0C40 0 20 0 10 0L0 0Z" fill="#bebebe"></path><path d="M0 49L10 47.7C20 46.3 40 43.7 60 41.8C80 40 100 39 120 42.5C140 46 160 54 180 51.2C200 48.3 220 34.7 240 34.2C260 33.7 280 46.3 300 52.8C320 59.3 340 59.7 360 53.5C380 47.3 400 34.7 420 31.7C440 28.7 460 35.3 480 43.5C500 51.7 520 61.3 540 64.2C560 67 580 63 600 55C620 47 640 35 660 32C680 29 700 35 720 36.8C740 38.7 760 36.3 780 38.2C800 40 820 46 840 48.7C860 51.3 880 50.7 890 50.3L900 50L900 27L890 23.7C880 20.3 860 13.7 840 12.5C820 11.3 800 15.7 780 15.7C760 15.7 740 11.3 720 11C700 10.7 680 14.3 660 14C640 13.7 620 9.3 600 7C580 4.7 560 4.3 540 7.7C520 11 500 18 480 19.2C460 20.3 440 15.7 420 11.8C400 8 380 5 360 4C340 3 320 4 300 4.7C280 5.3 260 5.7 240 9.5C220 13.3 200 20.7 180 24C160 27.3 140 26.7 120 22.3C100 18 80 10 60 6.5C40 3 20 4 10 4.5L0 5Z" fill="#ababab"></path><path d="M0 88L10 85.7C20 83.3 40 78.7 60 75.7C80 72.7 100 71.3 120 75C140 78.7 160 87.3 180 89.7C200 92 220 88 240 88.2C260 88.3 280 92.7 300 91.5C320 90.3 340 83.7 360 80.8C380 78 400 79 420 81C440 83 460 86 480 87.5C500 89 520 89 540 90.3C560 91.7 580 94.3 600 94C620 93.7 640 90.3 660 84.5C680 78.7 700 70.3 720 70.7C740 71 760 80 780 79.5C800 79 820 69 840 70.8C860 72.7 880 86.3 890 93.2L900 100L900 48L890 48.3C880 48.7 860 49.3 840 46.7C820 44 800 38 780 36.2C760 34.3 740 36.7 720 34.8C700 33 680 27 660 30C640 33 620 45 600 53C580 61 560 65 540 62.2C520 59.3 500 49.7 480 41.5C460 33.3 440 26.7 420 29.7C400 32.7 380 45.3 360 51.5C340 57.7 320 57.3 300 50.8C280 44.3 260 31.7 240 32.2C220 32.7 200 46.3 180 49.2C160 52 140 44 120 40.5C100 37 80 38 60 39.8C40 41.7 20 44.3 10 45.7L0 47Z" fill="#939393"></path><path d="M0 101L10 101C20 101 40 101 60 101C80 101 100 101 120 101C140 101 160 101 180 101C200 101 220 101 240 101C260 101 280 101 300 101C320 101 340 101 360 101C380 101 400 101 420 101C440 101 460 101 480 101C500 101 520 101 540 101C560 101 580 101 600 101C620 101 640 101 660 101C680 101 700 101 720 101C740 101 760 101 780 101C800 101 820 101 840 101C860 101 880 101 890 101L900 101L900 98L890 91.2C880 84.3 860 70.7 840 68.8C820 67 800 77 780 77.5C760 78 740 69 720 68.7C700 68.3 680 76.7 660 82.5C640 88.3 620 91.7 600 92C580 92.3 560 89.7 540 88.3C520 87 500 87 480 85.5C460 84 440 81 420 79C400 77 380 76 360 78.8C340 81.7 320 88.3 300 89.5C280 90.7 260 86.3 240 86.2C220 86 200 90 180 87.7C160 85.3 140 76.7 120 73C100 69.3 80 70.7 60 73.7C40 76.7 20 81.3 10 83.7L0 86Z" fill="#777777"></path></svg>