<svg id="visual" viewBox="0 0 1400 50" width="1400" height="50" xmlns="http://www.w3.org/2000/svg" xmlns:xlink="http://www.w3.org/1999/xlink" version="1.1"><path d="M0 4L15.5 3.8C31 3.7 62 3.3 93.2 5.2C124.3 7 155.7 11 186.8 13C218 15 249 15 280 13.3C311 11.7 342 8.3 373.2 6.5C404.3 4.7 435.7 4.3 466.8 4C498 3.7 529 3.3 560 3.8C591 4.3 622 5.7 653.2 7.5C684.3 9.3 715.7 11.7 746.8 11.2C778 10.7 809 7.3 840 5.7C871 4 902 4 933.2 5.2C964.3 6.3 995.7 8.7 1026.8 8.8C1058 9 1089 7 1120 7.2C1151 7.3 1182 9.7 1213.2 9.7C1244.3 9.7 1275.7 7.3 1306.8 7.8C1338 8.3 1369 11.7 1384.5 13.3L1400 15L1400 0L1384.5 0C1369 0 1338 0 1306.8 0C1275.7 0 1244.3 0 1213.2 0C1182 0 1151 0 1120 0C1089 0 1058 0 1026.8 0C995.7 0 964.3 0 933.2 0C902 0 871 0 840 0C809 0 778 0 746.8 0C715.7 0 684.3 0 653.2 0C622 0 591 0 560 0C529 0 498 0 466.8 0C435.7 0 404.3 0 373.2 0C342 0 311 0 280 0C249 0 218 0 186.8 0C155.7 0 124.3 0 93.2 0C62 0 31 0 15.5 0L0 0Z" fill="#bebebe"></path><path d="M0 25L15.5 24.3C31 23.7 62 22.3 93.2 21.5C124.3 20.7 155.7 20.3 186.8 22.2C218 24 249 28 280 26.5C311 25 342 18 373.2 17.7C404.3 17.3 435.7 23.7 466.8 27C498 30.3 529 30.7 560 27.7C591 24.7 622 18.3 653.2 16.8C684.3 15.3 715.7 18.7 746.8 22.7C778 26.7 809 31.3 840 32.7C871 34 902 32 933.2 28C964.3 24 995.7 18 1026.8 16.5C1058 15 1089 18 1120 19C1151 20 1182 19 1213.2 20C1244.3 21 1275.7 24 1306.8 25.3C1338 26.7 1369 26.3 1384.5 26.2L1400 26L1400 13L1384.5 11.3C1369 9.7 1338 6.3 1306.8 5.8C1275.7 5.3 1244.3 7.7 1213.2 7.7C1182 7.7 1151 5.3 1120 5.2C1089 5 1058 7 1026.8 6.8C995.7 6.7 964.3 4.3 933.2 3.2C902 2 871 2 840 3.7C809 5.3 778 8.7 746.8 9.2C715.7 9.7 684.3 7.3 653.2 5.5C622 3.7 591 2.3 560 1.8C529 1.3 498 1.7 466.8 2C435.7 2.3 404.3 2.7 373.2 4.5C342 6.3 311 9.7 280 11.3C249 13 218 13 186.8 11C155.7 9 124.3 5 93.2 3.2C62 1.3 31 1.7 15.5 1.8L0 2Z" fill="#ababab"></path><path d="M0 45L15.5 43.8C31 42.7 62 40.3 93.2 38.8C124.3 37.3 155.7 36.7 186.8 38.5C218 40.3 249 44.7 280 45.8C311 47 342 45 373.2 45C404.3 45 435.7 47 466.8 46.3C498 45.7 529 42.3 560 41C591 39.7 622 40.3 653.2 41.3C684.3 42.3 715.7 43.7 746.8 44.3C778 45 809 45 840 45.7C871 46.3 902 47.7 933.2 47.5C964.3 47.3 995.7 45.7 1026.8 42.8C1058 40 1089 36 1120 36.2C1151 36.3 1182 40.7 1213.2 40.3C1244.3 40 1275.7 35 1306.8 36C1338 37 1369 44 1384.5 47.5L1400 51L1400 24L1384.5 24.2C1369 24.3 1338 24.7 1306.8 23.3C1275.7 22 1244.3 19 1213.2 18C1182 17 1151 18 1120 17C1089 16 1058 13 1026.8 14.5C995.7 16 964.3 22 933.2 26C902 30 871 32 840 30.7C809 29.3 778 24.7 746.8 20.7C715.7 16.7 684.3 13.3 653.2 14.8C622 16.3 591 22.7 560 25.7C529 28.7 498 28.3 466.8 25C435.7 21.7 404.3 15.3 373.2 15.7C342 16 311 23 280 24.5C249 26 218 22 186.8 20.2C155.7 18.3 124.3 18.7 93.2 19.5C62 20.3 31 21.7 15.5 22.3L0 23Z" fill="#939393"></path><path d="M0 51L15.5 51C31 51 62 51 93.2 51C124.3 51 155.7 51 186.8 51C218 51 249 51 280 51C311 51 342 51 373.2 51C404.3 51 435.7 51 466.8 51C498 51 529 51 560 51C591 51 622 51 653.2 51C684.3 51 715.7 51 746.8 51C778 51 809 51 840 51C871 51 902 51 933.2 51C964.3 51 995.7 51 1026.8 51C1058 51 1089 51 1120 51C1151 51 1182 51 1213.2 51C1244.3 51 1275.7 51 1306.8 51C1338 51 1369 51 1384.5 51L1400 51L1400 49L1384.5 45.5C1369 42 1338 35 1306.8 34C1275.7 33 1244.3 38 1213.2 38.3C1182 38.7 1151 34.3 1120 34.2C1089 34 1058 38 1026.8 40.8C995.7 43.7 964.3 45.3 933.2 45.5C902 45.7 871 44.3 840 43.7C809 43 778 43 746.8 42.3C715.7 41.7 684.3 40.3 653.2 39.3C622 38.3 591 37.7 560 39C529 40.3 498 43.7 466.8 44.3C435.7 45 404.3 43 373.2 43C342 43 311 45 280 43.8C249 42.7 218 38.3 186.8 36.5C155.7 34.7 124.3 35.3 93.2 36.8C62 38.3 31 40.7 15.5 41.8L0 43Z" fill="#777777"></path></svg>